<svg width="24" height="24" viewBox="0 0 24 24" fill="none" xmlns="http://www.w3.org/2000/svg">
<g clip-path="url(#clip0_1412_5399)">
<path d="M2.91586 7.03516L4.16128 22.0696C4.25053 23.1538 5.17406 24.0039 6.26241 24.0039H17.7376C18.826 24.0039 19.7495 23.1538 19.8388 22.0696L21.0841 7.03516H2.91586ZM8.48372 21.1914C8.11566 21.1914 7.806 20.9051 7.78266 20.5322L7.07953 9.18845C7.05548 8.80052 7.35005 8.46681 7.73733 8.44277C8.139 8.41459 8.45831 8.71262 8.48302 9.10056L9.18614 20.4443C9.21103 20.846 8.89317 21.1914 8.48372 21.1914ZM12.7031 20.4883C12.7031 20.8769 12.3886 21.1914 12 21.1914C11.6114 21.1914 11.2969 20.8769 11.2969 20.4883V9.14453C11.2969 8.75589 11.6114 8.44141 12 8.44141C12.3886 8.44141 12.7031 8.75589 12.7031 9.14453V20.4883ZM16.9205 9.1885L16.2173 20.5322C16.1942 20.9013 15.8866 21.2089 15.4717 21.19C15.0844 21.166 14.7898 20.8323 14.8139 20.4444L15.517 9.10061C15.541 8.71267 15.8809 8.43044 16.2627 8.44281C16.65 8.46686 16.9445 8.80056 16.9205 9.1885ZM21.1406 2.81641H16.9219V2.11328C16.9219 0.950125 15.9757 0.00390625 14.8125 0.00390625H9.1875C8.02434 0.00390625 7.07812 0.950125 7.07812 2.11328V2.81641H2.85938C2.0827 2.81641 1.45312 3.44598 1.45312 4.22266C1.45312 4.99923 2.0827 5.62891 2.85938 5.62891H21.1406C21.9173 5.62891 22.5469 4.99923 22.5469 4.22266C22.5469 3.44598 21.9173 2.81641 21.1406 2.81641ZM15.5156 2.81641H8.48438V2.11328C8.48438 1.72534 8.79956 1.41016 9.1875 1.41016H14.8125C15.2004 1.41016 15.5156 1.72534 15.5156 2.11328V2.81641Z" fill="black"/>
</g>
<defs>
<clipPath id="clip0_1412_5399">
<rect width="24" height="24" fill="white" transform="translate(0 0.00390625)"/>
</clipPath>
</defs>
</svg>
