<svg width="24" height="24" viewBox="0 0 24 24" fill="none" xmlns="http://www.w3.org/2000/svg">
<g clip-path="url(#clip0_1412_5395)">
<path d="M18.9999 12.0508C18.447 12.0508 18 12.4989 18 13.0508V21.0508C18 21.6018 17.5519 22.0508 17.0001 22.0508H3C2.44795 22.0508 2.00006 21.6018 2.00006 21.0508V7.05078C2.00006 6.49981 2.44795 6.05084 3 6.05084H11.0001C11.553 6.05084 12 5.60281 12 5.05091C12 4.49886 11.553 4.05078 11.0001 4.05078H3C1.34602 4.05078 0 5.3968 0 7.05078V21.0508C0 22.7049 1.34602 24.0508 3 24.0508H17.0001C18.654 24.0508 20.0001 22.7049 20.0001 21.0508V13.0508C20.0001 12.4978 19.5529 12.0508 18.9999 12.0508Z" fill="#747474"/>
<path d="M9.37711 11.139C9.30761 11.2088 9.26 11.2974 9.24014 11.3939L8.53317 14.9301C8.50022 15.0939 8.5522 15.2629 8.67014 15.3819C8.71668 15.4283 8.77191 15.4651 8.83266 15.4902C8.89342 15.5152 8.95852 15.528 9.02423 15.5279C9.05611 15.5279 9.08925 15.525 9.1222 15.518L12.6572 14.8111C12.7552 14.7909 12.8442 14.744 12.9132 14.6739L20.8252 6.76186L17.2902 3.22702L9.37711 11.139ZM23.2691 0.782066C22.2943 -0.19298 20.7082 -0.19298 19.7341 0.782066L18.3502 2.16596L21.8852 5.70099L23.2691 4.31691C23.7412 3.84596 24.0012 3.21788 24.0012 2.54991C24.0012 1.88194 23.7412 1.25391 23.2691 0.782066Z" fill="#747474"/>
</g>
<defs>
<clipPath id="clip0_1412_5395">
<rect width="24" height="24" fill="white" transform="translate(0 0.00390625)"/>
</clipPath>
</defs>
</svg>
