<svg width="146" height="146" viewBox="0 0 146 146" fill="none" xmlns="http://www.w3.org/2000/svg">
<g clip-path="url(#clip0_1412_5558)">
<path d="M107.692 134.123C106.543 134.123 105.369 133.977 104.206 133.673L10.1309 108.481C2.87374 106.479 -1.45162 98.9722 0.446715 91.7208L10.7882 52.0631C11.4209 49.629 13.9093 48.1507 16.3546 48.8026C18.7884 49.4353 20.2542 51.9294 19.616 54.3689L9.27338 94.0329C8.63519 96.4779 10.0889 99.0022 12.5228 99.6717L106.543 124.852C108.958 125.49 111.452 124.054 112.085 121.652L115.296 108.693C115.906 106.248 118.375 104.764 120.82 105.36C123.267 105.969 124.757 108.438 124.154 110.883L120.931 123.903C119.305 130.065 113.758 134.123 107.693 134.123L107.692 134.123Z" fill="#DDDDDD"/>
<path d="M132.314 97.6178H38.0199C30.471 97.6178 24.332 91.4791 24.332 83.93V13.9691C24.332 6.42025 30.471 0.28125 38.0199 0.28125H132.314C139.863 0.28125 146.002 6.42025 146.002 13.9691V83.93C146.002 91.4791 139.863 97.6178 132.314 97.6178ZM38.0199 9.40648C35.5013 9.40648 33.4573 11.4505 33.4573 13.9691V83.93C33.4573 86.4485 35.5013 88.4926 38.0199 88.4926H132.314C134.833 88.4926 136.877 86.4485 136.877 83.93V13.9691C136.877 11.4505 134.833 9.40648 132.314 9.40648H38.0199Z" fill="#DDDDDD"/>
<path d="M54.7434 42.866C48.0332 42.866 42.5761 37.4088 42.5761 30.6986C42.5761 23.9884 48.0332 18.5312 54.7434 18.5312C61.4536 18.5312 66.9096 23.9884 66.9096 30.6986C66.9096 37.4088 61.4539 42.866 54.7434 42.866ZM54.7434 27.6565C53.0638 27.6565 51.7013 29.0199 51.7013 30.6986C51.7013 32.3774 53.0638 33.7407 54.7434 33.7407C56.4222 33.7407 57.7844 32.3774 57.7844 30.6986C57.7844 29.0199 56.4222 27.6565 54.7434 27.6565ZM29.0097 91.4116C27.8422 91.4116 26.6739 90.9673 25.7859 90.0739C24.0037 88.2916 24.0037 85.4009 25.7859 83.6187L53.2831 56.1218C57.4448 51.9601 64.2151 51.9601 68.37 56.1218L75.7252 63.4767L98.3187 36.3563C100.338 33.9346 103.302 32.5356 106.447 32.518C109.829 32.3295 112.567 33.8676 114.604 36.2593L144.889 71.5919C146.53 73.5022 146.305 76.3861 144.395 78.028C142.479 79.6712 139.602 79.4459 137.959 77.5356L107.663 42.191C107.261 41.7096 106.769 41.7341 106.495 41.6486C106.235 41.6486 105.729 41.7276 105.328 42.2021L79.5338 73.168C78.7117 74.1527 77.5143 74.7498 76.2365 74.8043C74.9344 74.8767 73.7057 74.3777 72.8045 73.472L61.9161 62.5824C61.1431 61.8094 60.5046 61.8094 59.7318 62.5824L32.2346 90.0739C31.8122 90.4991 31.3097 90.8362 30.7562 91.0658C30.2026 91.2955 29.609 91.413 29.0097 91.4116Z" fill="#DDDDDD"/>
</g>
<defs>
<clipPath id="clip0_1412_5558">
<rect width="146" height="146" fill="white"/>
</clipPath>
</defs>
</svg>
