<svg width="83" height="83" viewBox="0 0 83 83" fill="none" xmlns="http://www.w3.org/2000/svg">
<circle cx="41.5" cy="41.5" r="41" stroke="black"/>
<path d="M13.6834 47L13.6834 35.8H14.8674L14.8674 45.976H21.1394V47H13.6834ZM25.1643 47.08C24.3536 47.08 23.6229 46.8987 22.9723 46.536C22.3323 46.1627 21.8256 45.656 21.4523 45.016C21.0789 44.3653 20.8923 43.624 20.8923 42.792C20.8923 41.9493 21.0789 41.208 21.4523 40.568C21.8256 39.928 22.3323 39.4267 22.9723 39.064C23.6123 38.7013 24.3429 38.52 25.1643 38.52C25.9963 38.52 26.7323 38.7013 27.3723 39.064C28.0229 39.4267 28.5296 39.928 28.8923 40.568C29.2656 41.208 29.4523 41.9493 29.4523 42.792C29.4523 43.624 29.2656 44.3653 28.8923 45.016C28.5296 45.656 28.0229 46.1627 27.3723 46.536C26.7216 46.8987 25.9856 47.08 25.1643 47.08ZM25.1643 46.072C25.7723 46.072 26.3109 45.9387 26.7803 45.672C27.2496 45.3947 27.6176 45.0107 27.8843 44.52C28.1616 44.0187 28.3003 43.4427 28.3003 42.792C28.3003 42.1307 28.1616 41.5547 27.8843 41.064C27.6176 40.5733 27.2496 40.1947 26.7803 39.928C26.3109 39.6507 25.7776 39.512 25.1803 39.512C24.5829 39.512 24.0496 39.6507 23.5803 39.928C23.1109 40.1947 22.7376 40.5733 22.4603 41.064C22.1829 41.5547 22.0443 42.1307 22.0443 42.792C22.0443 43.4427 22.1829 44.0187 22.4603 44.52C22.7376 45.0107 23.1109 45.3947 23.5803 45.672C24.0496 45.9387 24.5776 46.072 25.1643 46.072ZM34.3555 50.184C33.5875 50.184 32.8515 50.072 32.1475 49.848C31.4435 49.624 30.8728 49.304 30.4355 48.888L31.0115 48.024C31.4062 48.376 31.8915 48.6533 32.4675 48.856C33.0542 49.0693 33.6728 49.176 34.3235 49.176C35.3902 49.176 36.1742 48.9253 36.6755 48.424C37.1768 47.9333 37.4275 47.1653 37.4275 46.12V44.024L37.5875 42.584L37.4755 41.144V38.6H38.5635V45.976C38.5635 47.4267 38.2062 48.488 37.4915 49.16C36.7875 49.8427 35.7422 50.184 34.3555 50.184ZM34.1475 46.68C33.3475 46.68 32.6275 46.5093 31.9875 46.168C31.3475 45.816 30.8408 45.3307 30.4675 44.712C30.1048 44.0933 29.9235 43.384 29.9235 42.584C29.9235 41.784 30.1048 41.08 30.4675 40.472C30.8408 39.8533 31.3475 39.3733 31.9875 39.032C32.6275 38.6907 33.3475 38.52 34.1475 38.52C34.8942 38.52 35.5662 38.6747 36.1635 38.984C36.7608 39.2933 37.2355 39.752 37.5875 40.36C37.9395 40.968 38.1155 41.7093 38.1155 42.584C38.1155 43.4587 37.9395 44.2 37.5875 44.808C37.2355 45.416 36.7608 45.88 36.1635 46.2C35.5662 46.52 34.8942 46.68 34.1475 46.68ZM34.2595 45.672C34.8782 45.672 35.4275 45.544 35.9075 45.288C36.3875 45.0213 36.7662 44.6587 37.0435 44.2C37.3208 43.7307 37.4595 43.192 37.4595 42.584C37.4595 41.976 37.3208 41.4427 37.0435 40.984C36.7662 40.5253 36.3875 40.168 35.9075 39.912C35.4275 39.6453 34.8782 39.512 34.2595 39.512C33.6515 39.512 33.1022 39.6453 32.6115 39.912C32.1315 40.168 31.7528 40.5253 31.4755 40.984C31.2088 41.4427 31.0755 41.976 31.0755 42.584C31.0755 43.192 31.2088 43.7307 31.4755 44.2C31.7528 44.6587 32.1315 45.0213 32.6115 45.288C33.1022 45.544 33.6515 45.672 34.2595 45.672ZM49.0481 47.096C48.2055 47.096 47.4215 46.9573 46.6961 46.68C45.9815 46.392 45.3575 45.992 44.8241 45.48C44.3015 44.9573 43.8908 44.3547 43.5921 43.672C43.3041 42.9787 43.1601 42.2213 43.1601 41.4C43.1601 40.5787 43.3041 39.8267 43.5921 39.144C43.8908 38.4507 44.3015 37.848 44.8241 37.336C45.3575 36.8133 45.9815 36.4133 46.6961 36.136C47.4108 35.848 48.1948 35.704 49.0481 35.704C49.8908 35.704 50.6695 35.848 51.3841 36.136C52.0988 36.4133 52.7175 36.808 53.2401 37.32C53.7735 37.832 54.1841 38.4347 54.4721 39.128C54.7708 39.8213 54.9201 40.5787 54.9201 41.4C54.9201 42.2213 54.7708 42.9787 54.4721 43.672C54.1841 44.3653 53.7735 44.968 53.2401 45.48C52.7175 45.992 52.0988 46.392 51.3841 46.68C50.6695 46.9573 49.8908 47.096 49.0481 47.096ZM49.0481 46.04C49.7201 46.04 50.3388 45.928 50.9041 45.704C51.4801 45.4693 51.9761 45.144 52.3921 44.728C52.8188 44.3013 53.1495 43.8107 53.3841 43.256C53.6188 42.6907 53.7361 42.072 53.7361 41.4C53.7361 40.728 53.6188 40.1147 53.3841 39.56C53.1495 38.9947 52.8188 38.504 52.3921 38.088C51.9761 37.6613 51.4801 37.336 50.9041 37.112C50.3388 36.8773 49.7201 36.76 49.0481 36.76C48.3761 36.76 47.7521 36.8773 47.1761 37.112C46.6001 37.336 46.0988 37.6613 45.6721 38.088C45.2561 38.504 44.9255 38.9947 44.6801 39.56C44.4455 40.1147 44.3281 40.728 44.3281 41.4C44.3281 42.0613 44.4455 42.6747 44.6801 43.24C44.9255 43.8053 45.2561 44.3013 45.6721 44.728C46.0988 45.144 46.6001 45.4693 47.1761 45.704C47.7521 45.928 48.3761 46.04 49.0481 46.04ZM59.806 47.08C59.0913 47.08 58.4673 46.9467 57.934 46.68C57.4007 46.4133 56.9847 46.0133 56.686 45.48C56.398 44.9467 56.254 44.28 56.254 43.48V38.6H57.39V43.352C57.39 44.248 57.6087 44.9253 58.046 45.384C58.494 45.832 59.118 46.056 59.918 46.056C60.5047 46.056 61.0113 45.9387 61.438 45.704C61.8753 45.4587 62.206 45.1067 62.43 44.648C62.6647 44.1893 62.782 43.64 62.782 43V38.6H63.918V47H62.83V44.696L63.006 45.112C62.7393 45.7307 62.3233 46.216 61.758 46.568C61.2033 46.9093 60.5527 47.08 59.806 47.08ZM68.74 47.08C67.9507 47.08 67.3427 46.8667 66.916 46.44C66.4893 46.0133 66.276 45.4107 66.276 44.632V36.744H67.412V44.568C67.412 45.0587 67.5347 45.4373 67.78 45.704C68.036 45.9707 68.3987 46.104 68.868 46.104C69.3693 46.104 69.7853 45.96 70.116 45.672L70.516 46.488C70.292 46.6907 70.02 46.84 69.7 46.936C69.3907 47.032 69.0707 47.08 68.74 47.08ZM64.772 39.544V38.6H69.972V39.544H64.772Z" fill="black"/>
</svg>
