<svg width="45" height="82" viewBox="0 0 45 82" fill="none" xmlns="http://www.w3.org/2000/svg">
<path d="M36.0656 0C36.0607 0.0930627 36.0607 0.186309 36.0656 0.279372V80.9215C36.0603 81.0145 36.0603 81.1078 36.0656 81.2008H34.0156C34.0209 81.1078 34.0209 81.0145 34.0156 80.9215V0.279372C34.0206 0.186309 34.0206 0.0930627 34.0156 0L36.0656 0Z" fill="black"/>
<path d="M28.0163 0C28.0113 0.0930627 28.0113 0.186309 28.0163 0.279372V80.9215C28.0109 81.0145 28.0109 81.1078 28.0163 81.2008H25.9062C25.9116 81.1078 25.9116 81.0145 25.9062 80.9215V0.279372C25.9112 0.186309 25.9112 0.0930627 25.9062 0L28.0163 0Z" fill="black"/>
<path d="M42.0703 81.1816C42.0703 81.0949 42.0703 80.9985 42.0703 80.9022V0.279372C42.0703 0.183037 42.0703 0.0963351 42.0703 0H44.0703V81.1816H42.0703Z" fill="black"/>
<path d="M0.015625 30.1685C0.015625 28.0684 0.015625 26.0068 0.015625 23.8682C0.0317383 23.2748 0.174717 22.6911 0.435625 22.1534C0.668258 21.728 1.01318 21.3691 1.43562 21.113C1.85109 20.7821 2.35926 20.5775 2.89563 20.5253C3.50178 20.4916 4.10947 20.4916 4.71562 20.5253C5.25262 20.5555 5.77257 20.718 6.22563 20.9974C6.63822 21.2318 6.98229 21.5633 7.22563 21.9607C7.51171 22.4344 7.66023 22.9734 7.65562 23.5214C7.65562 23.9356 7.70563 24.3499 7.70563 24.7545C7.70563 28.6079 7.70563 32.5287 7.70563 36.4206C7.74076 37.0312 7.61702 37.6405 7.34562 38.1932C6.99275 38.8349 6.40995 39.3313 5.70563 39.5901C5.16868 39.8006 4.59533 39.9118 4.01562 39.9176C3.46404 39.9222 2.91585 39.8342 2.39563 39.6575C1.92439 39.4899 1.49016 39.2382 1.11563 38.9157C0.59611 38.4721 0.259027 37.8637 0.165625 37.2009C0.107107 36.9119 0.0736578 36.6187 0.065625 36.3243C0.015625 34.2724 0.015625 32.2204 0.015625 30.1685ZM6.06563 30.1685C6.06563 28.3574 6.06563 26.5367 6.06563 24.7159C6.07778 24.3139 6.06107 23.9115 6.01562 23.5117C5.9867 23.2262 5.86469 22.9569 5.66708 22.7423C5.46948 22.5277 5.20642 22.3789 4.91563 22.3172C4.38406 22.1807 3.8285 22.1545 3.28562 22.2401C3.01867 22.2836 2.76552 22.3851 2.54545 22.537C2.32537 22.6889 2.14417 22.8872 2.01562 23.1168C1.76896 23.5699 1.65815 24.0803 1.69562 24.5907C1.69562 27.9817 1.69562 31.3341 1.69562 34.754C1.6921 35.3978 1.72883 36.0412 1.80562 36.6807C1.83011 36.9004 1.90245 37.1126 2.0179 37.3035C2.13336 37.4944 2.28933 37.6597 2.47563 37.7886C2.80692 37.9862 3.17896 38.1119 3.56583 38.1568C3.95269 38.2017 4.34507 38.1648 4.71562 38.0487C4.97782 38.0189 5.2262 37.9193 5.43288 37.761C5.63956 37.6028 5.79634 37.3921 5.88562 37.1528C6.00288 36.8072 6.0669 36.4469 6.07562 36.0835C6.09562 34.1086 6.08563 32.153 6.08563 30.1878L6.06563 30.1685Z" fill="black"/>
<path d="M3.74563 1.79219V2.07156C3.74563 3.73815 3.74563 5.39512 3.74563 7.06171C3.74563 9.11365 3.74563 11.1752 3.74563 13.2368C3.77156 13.397 3.74506 13.561 3.66979 13.706C3.59452 13.851 3.47423 13.9699 3.32562 14.046C3.18735 14.1122 3.03503 14.1466 2.88063 14.1466C2.72622 14.1466 2.5739 14.1122 2.43563 14.046C2.30609 13.9812 2.19969 13.8805 2.13017 13.7568C2.06065 13.6332 2.0312 13.4923 2.04562 13.3524V1.79219H0.015625V0.0485206H4.71562C5.27867 0.0332097 5.83934 0.124866 6.36562 0.318259C6.69039 0.432061 6.97901 0.624991 7.20334 0.87824C7.42766 1.13149 7.58005 1.43641 7.64563 1.76328C7.71456 2.04091 7.74814 2.32559 7.74563 2.61103V18.6894C7.767 18.8285 7.7463 18.9707 7.68601 19.0988C7.62571 19.227 7.52837 19.3356 7.40562 19.4119C7.25361 19.4964 7.08116 19.5409 6.90562 19.5409C6.73009 19.5409 6.55764 19.4964 6.40562 19.4119C6.29775 19.3452 6.2103 19.2521 6.15228 19.142C6.09427 19.0319 6.06781 18.9089 6.07562 18.7857C6.07562 18.3329 6.07562 17.8898 6.07562 17.437C6.07562 12.6202 6.07562 7.86129 6.07562 3.07344C6.05696 2.74198 5.97915 2.4161 5.84562 2.11009C5.72563 1.81145 5.41563 1.77292 5.14563 1.75365C4.68563 1.77292 4.23563 1.79219 3.74563 1.79219Z" fill="black"/>
<path d="M6.08412 71.8282H0.874123C0.544123 71.8282 0.244123 71.7511 0.114123 71.4139C0.0197385 71.2403 -0.0174265 71.0431 0.00758849 70.8486C0.0326034 70.6541 0.118608 70.4715 0.254123 70.3253C0.4133 70.1886 0.620991 70.1162 0.834123 70.123C2.48412 70.123 4.13412 70.123 5.78412 70.123H6.08412V69.8533C6.08412 67.994 6.08412 66.1251 6.08412 64.2659C6.09004 64.0137 6.06656 63.7616 6.01412 63.5145C5.95709 63.3611 5.85279 63.2282 5.71518 63.1335C5.57757 63.0388 5.41322 62.9868 5.24412 62.9846H0.884123C0.728173 63.0028 0.570396 62.97 0.436174 62.8913C0.301951 62.8127 0.199085 62.6929 0.144123 62.5511C0.0584753 62.382 0.0260927 62.1925 0.0509717 62.0059C0.0758506 61.8193 0.156902 61.6438 0.284123 61.501C0.432074 61.3718 0.624387 61.2997 0.824123 61.2987C2.25412 61.2987 3.68412 61.2987 5.12412 61.2987C5.58799 61.2828 6.04956 61.3685 6.47412 61.5492C6.8656 61.7353 7.19338 62.0258 7.41851 62.3862C7.64364 62.7465 7.75665 63.1615 7.74412 63.5819C7.74412 68.5207 7.74412 73.4594 7.74412 78.3982C7.76329 78.7325 7.6956 79.0662 7.54718 79.369C7.39876 79.6718 7.1743 79.9341 6.89412 80.1323C6.45922 80.4541 5.93199 80.6391 5.38412 80.6621C3.94412 80.6621 2.49412 80.6621 1.05412 80.6621C0.844337 80.6684 0.635788 80.6289 0.444123 80.5465C0.0141226 80.3924 0.0141226 80.007 0.0641226 79.5253C0.114123 79.0437 0.404123 78.9955 0.834123 78.9955C1.92412 78.9955 3.01412 78.9955 4.10412 78.9955H5.29412C5.50492 78.9563 5.69388 78.845 5.8262 78.6821C5.95851 78.5192 6.02526 78.3158 6.01412 78.1092C6.01412 77.7913 6.06412 77.4734 6.06412 77.1459L6.08412 71.8282Z" fill="black"/>
<path d="M0.015625 42.564V40.8203H0.305625C1.85562 40.8203 3.41562 40.8203 4.96562 40.8203C5.43761 40.8222 5.90527 40.9071 6.34562 41.0708C6.67539 41.1826 6.96895 41.3758 7.19705 41.6311C7.42515 41.8863 7.57982 42.1947 7.64563 42.5254C7.71398 42.8032 7.74755 43.0878 7.74563 43.3732V59.49C7.74222 59.6426 7.70826 59.7931 7.64563 59.9332C7.47563 60.3089 7.00563 60.3571 6.52563 60.2415C6.37953 60.1851 6.25703 60.0835 6.17738 59.9527C6.09774 59.8219 6.06546 59.6693 6.08563 59.519V43.8741C6.09719 43.6313 6.07363 43.3882 6.01562 43.1516C5.95685 42.9501 5.82105 42.7774 5.63553 42.6684C5.45002 42.5594 5.22854 42.5221 5.01562 42.564H0.015625Z" fill="black"/>
<path d="M16.648 75.3516C17.3986 75.3605 18.1147 75.6563 18.6389 76.1739C19.1631 76.6915 19.4523 77.3885 19.443 78.1116C19.4337 78.8346 19.1267 79.5245 18.5894 80.0295C18.0521 80.5344 17.3286 80.8131 16.578 80.8041C15.8185 80.7815 15.0993 80.4696 14.5782 79.9368C14.057 79.4041 13.7765 78.694 13.798 77.9622C13.8479 77.2625 14.1683 76.6062 14.6959 76.1229C15.2236 75.6396 15.9201 75.3644 16.648 75.3516Z" fill="black"/>
</svg>
